<?xml version="1.0" encoding="UTF-8" standalone="no"?>
<!-- Created with Inkscape (http://www.inkscape.org/) -->

<svg
   width="192.56381mm"
   height="147.04004mm"
   viewBox="0 0 192.56381 147.04004"
   version="1.1"
   id="svg1"
   xml:space="preserve"
   xmlns="http://www.w3.org/2000/svg"
   xmlns:svg="http://www.w3.org/2000/svg"><defs
     id="defs1" /><g
     id="layer1"
     transform="translate(-14.647429,-64.212749)"><g
       id="g25"
       transform="matrix(1.2564199,0,0,1.2220226,16.323579,46.081075)"><path
         id="rect1"
         d="m 29.575001,98.528999 h 0.327 v 0.327 h -0.327 z" /><path
         id="rect2"
         d="m 51.144001,109.967 h 0.327 v 0.327 h -0.327 z" /><path
         id="rect3"
         d="m 29.902,59.640999 h 0.327 v 0.327 h -0.327 z" /><path
         id="rect4"
         d="m 31.535999,102.778 h 0.327 v 0.327 h -0.327 z" /><path
         id="rect5"
         d="m 66.502998,34.477001 h 0.327 v 0.327 h -0.327 z" /><path
         id="rect6"
         d="m 43.953999,50.817001 h 0.327 v 0.327 h -0.327 z" /><path
         id="rect7"
         d="m 108.333,39.379002 h 0.327 v 0.327 h -0.327 z" /><path
         id="rect8"
         d="m 97.222,41.993 h 0.327 v 0.327 h -0.327 z" /><path
         id="rect9"
         d="m 101.144,51.144001 h 0.327 v 0.327 h -0.327 z" /><path
         id="rect10"
         d="m 84.804001,40.686001 h 0.327 v 0.327 h -0.327 z" /><path
         id="rect11"
         d="m 48.855999,35.131001 h 0.327 v 0.327 h -0.327 z" /><path
         id="rect12"
         d="m 58.66,112.255 h 0.327 v 0.327 H 58.66 Z" /><path
         id="rect13"
         d="m 25,84.804001 h 0.327 v 0.327 H 25 Z" /><path
         id="rect14"
         d="m 123.693,95.261002 h 0.327 v 0.327 h -0.327 z" /><path
         id="rect15"
         d="m 123.693,89.706001 h 0.327 v 0.654 h -0.327 z" /><path
         id="rect16"
         d="m 123.039,63.562 h 0.327 v 0.327 h -0.327 z" /><path
         id="rect17"
         d="m 121.405,59.966999 h 0.327 v 0.327 h -0.327 z" /><path
         id="rect18"
         d="m 74.672997,115.196 h 0.327 v 0.327 h -0.327 z" /><path
         id="rect19"
         d="M 124.673,85.458 H 125 v 0.327 h -0.327 z" /><path
         id="rect20"
         d="m 123.366,89.378998 h 0.327 v 0.327 h -0.327 z" /><path
         id="rect21"
         d="m 101.471,114.216 h 0.327 v 0.327 h -0.327 z" /><path
         id="rect22"
         d="m 91.339996,115.196 h 0.327 v 0.327 h -0.327 z" /><path
         id="rect23"
         d="m 109.967,111.275 h 0.327 v 0.327 h -0.327 z" /><path
         d="m 113.889,68.791 h -0.327 v -0.327 h -0.327 v -0.327 h -0.327 V 67.81 h -3.595 v -0.327 h -1.307 v 0.327 h -1.634 v 0.327 h -0.327 V 67.81 h -0.327 v 0.327 h -0.327 V 67.81 h -0.327 v -0.327 h -1.307 v 0.327 h -0.654 v 0.327 h -0.327 V 67.81 h -0.327 v 0.327 h -0.327 V 67.81 h -2.288 v 0.327 H 99.507 V 67.81 h -0.654 v 0.327 H 97.546 V 67.81 h -0.654 v 0.327 H 96.565 V 67.81 h -0.327 v -0.654 h 0.327 v -0.654 h 0.654 v -0.327 h 0.327 v -1.961 h 0.327 V 63.887 H 98.2 V 63.56 h 0.327 v -0.327 h 0.327 v -0.98 h 0.327 v -0.654 h 0.327 v -0.654 h 0.327 v -0.654 h 0.327 v -0.654 h 0.327 v -0.654 h 0.327 v -0.654 h 0.327 v -0.98 h 0.327 v -0.98 h 0.327 v -0.327 h 0.327 v -0.654 h 0.327 v -0.327 h -0.327 v -0.327 h 0.327 v -1.961 h -0.327 v -0.327 h -0.327 v -0.327 h -0.654 v -0.327 h -0.327 v -0.327 h -0.327 v -1.307 h -0.327 V 49.504 H 99.835 V 49.177 H 99.181 V 48.85 h -1.307 v -0.327 h -0.327 v 0.654 H 97.22 v 0.327 h -0.327 v 0.327 h -0.327 v 0.654 h -0.654 v 0.654 h -0.327 v 0.327 h -0.327 v 0.327 h -0.654 v 0.327 h -0.327 v 0.327 H 93.95 v 0.654 h -0.327 v 0.327 h -0.327 v 0.327 h -0.327 v 0.654 h -0.654 v 0.654 h -0.327 v 0.327 h -0.327 v 0.327 h -0.327 v 0.327 h -0.327 v 0.654 H 90.68 v 0.327 h -0.327 v 0.327 h -0.327 v 0.327 h -0.327 v 0.327 h -0.327 v 0.327 h -0.327 v 0.327 h -0.654 v 0.327 h -0.327 v 0.327 h -0.327 v 0.327 H 87.41 v 0.327 h -0.654 v 0.327 h -0.327 v 0.654 h -0.327 v 0.327 h -0.654 v 0.327 H 84.794 V 61.276 H 84.467 V 59.969 H 84.14 v -0.654 h -0.327 v -0.98 H 83.486 V 58.008 H 83.159 V 56.701 H 82.832 V 56.374 H 82.505 V 55.72 h -0.327 v -1.307 h -0.327 v -0.654 h -0.327 v -0.654 h -0.327 v -0.98 H 80.87 V 51.471 H 80.543 V 50.817 H 80.216 V 50.49 h -0.327 v -0.654 h -0.327 v -0.98 H 79.235 V 47.549 H 78.908 V 46.895 H 78.581 V 45.588 H 78.254 V 45.261 H 77.927 V 44.607 H 77.273 V 44.28 h -0.654 v -0.327 h -0.654 v 0.327 h -0.327 v 0.327 h -0.327 v 0.327 h -0.654 v 0.654 H 74.33 v 0.654 h -0.327 v 1.307 h -0.327 v 0.654 h -0.327 v 0.98 h -0.327 v 0.327 h -0.327 v 0.654 h -0.327 v 0.98 h -0.327 v 0.654 h -0.327 v 0.327 h -0.327 v 0.327 H 71.06 v 0.654 h -0.327 v 0.654 h -0.327 v 0.327 h -0.327 v 0.654 h -0.327 v 0.327 h -0.327 v 0.654 h -0.327 v 0.327 h -0.327 v 0.327 h -0.327 v 0.654 h -0.327 v 0.327 h -0.654 v 0.327 h -0.327 v 0.327 h -0.654 v -0.327 h -0.654 v -0.327 h -0.98 V 57.03 h -0.98 v -0.327 h -0.327 v -0.327 h -0.654 v -0.327 h -0.654 v -0.327 h -0.98 v -0.327 h -0.654 v -0.327 h -0.98 V 54.741 H 58.965 V 54.414 H 58.638 V 54.087 H 57.984 V 53.76 h -0.98 V 53.433 H 56.35 v -0.327 h -0.654 v -0.327 h -0.654 v -0.327 h -0.98 v -0.327 h -0.327 v -0.327 h -0.98 V 51.144 H 50.794 V 50.817 H 50.14 V 50.49 h -0.654 v -0.327 h -0.654 v -0.327 h -0.654 v -0.327 h -0.98 v -0.327 h -1.307 v 0.327 h -0.327 v 0.327 h -0.327 v 0.327 H 44.91 v 0.327 h -0.327 v 0.327 h 0.327 v 0.327 h -0.327 v 0.98 h 0.327 v 0.654 h 0.327 v 0.327 h 0.327 v 0.327 h 0.327 v 0.327 h 0.654 v 0.98 h 0.327 v 0.654 h 0.327 v 0.654 h 0.327 v 0.327 h 0.327 v 0.327 h 0.327 v 0.654 h 0.327 v 0.327 h 0.327 v 0.327 h 0.327 v 0.654 h 0.327 v 0.327 h 0.327 v 0.327 h 0.327 v 0.327 h 0.327 v 0.654 h 0.327 v 0.654 h 0.327 v 0.327 h 0.327 v 0.327 h 0.327 v 0.327 H 51.45 v 0.327 h -0.327 v 0.327 H 50.796 V 62.26 h -0.327 v 0.327 h -2.614 v 0.327 h -1.634 v 0.327 h -0.327 v -0.327 h -0.327 v 0.327 h -2.941 v -0.327 h -0.327 v 0.327 h -0.98 v 0.327 h -0.654 v 0.327 h -0.327 v 0.654 h -0.327 v 1.961 h 0.327 v 0.327 h 0.327 v 0.98 h 0.327 v 0.327 h 0.327 v 0.327 h 0.654 v 0.327 h 0.98 v 0.327 h 0.654 v 0.327 h 0.654 v 0.654 h 0.327 v 0.327 h 0.654 v 0.327 h 0.327 v 0.654 h 0.98 v 0.327 h 0.327 v 0.327 h 0.327 v 0.327 h 0.327 v 0.327 h 0.654 v 0.654 h 0.327 v 0.654 h -0.327 v 0.327 H 47.53 v 0.327 h -0.327 v 0.327 h -0.327 v 0.327 h -0.654 v 0.327 h -0.98 v 0.327 h -0.654 v 0.327 h -0.327 v 0.327 h -0.654 v 0.327 H 43.28 V 77.3 h -0.654 v 0.327 h -0.654 v 0.327 h -0.654 v 0.327 h -0.327 v 0.327 h -0.327 v 0.327 H 40.337 V 78.608 H 40.01 v 0.654 h -0.654 v 0.327 h -0.327 v 0.327 h -0.327 v 0.327 h -0.327 v 0.327 h -0.654 v 0.327 h -0.327 v 0.327 H 36.74 v 0.327 h -0.327 v 0.327 h -0.654 v 0.327 h -0.327 v 0.327 h -0.327 v 0.327 h -0.98 v 0.327 h -1.307 v 0.327 h -0.327 v 0.327 h -0.654 v 0.654 h -0.654 v 0.98 h -0.327 v 0.98 h 0.327 v 0.654 h 0.327 v 0.654 h 0.654 v 0.327 h 0.327 v 0.654 h 0.327 v 0.654 h 0.654 v 0.654 h 0.654 v 0.327 h 0.654 v 0.327 h 0.654 v 0.327 h 0.327 v -0.327 h 0.98 v -0.327 h 3.595 v 0.327 h 0.654 v -0.327 h 0.654 v 0.327 h 0.327 v -0.327 h 1.961 v -0.327 h 0.327 v 0.327 h 1.307 v -0.327 h 0.327 v -0.327 h 2.288 v 0.327 h 0.654 v -0.327 h 1.307 v -0.327 h 0.98 V 89.07 h 0.327 v -0.327 h 0.654 v 0.327 h 0.98 v -0.327 h 0.327 v 0.327 h 0.98 v -0.327 h 2.614 v -0.327 h 0.654 v 0.327 h 0.327 v 0.327 h 0.327 v 0.654 h 0.327 v 1.307 h 0.327 v 1.307 h 0.327 v 0.327 h 0.327 v 1.634 h 0.327 v 0.98 h 0.327 v 0.654 h 0.327 v 0.327 h 0.327 v 0.654 h 0.327 v 0.654 h 0.327 v 0.327 h -0.327 v 0.327 h 0.327 v 0.654 h 0.327 v 0.327 h -0.327 v 0.327 h 0.327 v 0.654 h 0.327 v 0.327 h -0.327 v 0.327 h 0.327 v 0.98 h 0.327 v 0.327 h 0.654 v 0.654 h 1.307 v -0.327 h 0.327 v 0.327 h 0.327 v -0.327 h 0.98 v -0.327 h 0.327 v -0.327 h 0.327 v -0.327 h 0.327 v -0.327 h 0.327 v -0.327 h 0.327 v -0.654 h 0.327 v -0.654 h 0.327 v -0.327 h 0.327 v -0.98 h 0.327 v -0.654 h 0.327 v -0.98 h 0.327 v -0.327 h 0.327 v -0.327 h 0.327 V 95.28 h 0.327 v -0.327 h 0.327 v -0.327 h 0.327 v -0.654 h 0.327 v -0.327 h 0.327 v -0.654 h 0.327 v -0.327 h 0.327 V 92.01 h 0.327 v -0.327 h 0.327 v -0.327 h 0.98 v 0.327 h 0.327 v 0.654 h 0.327 v 0.327 h 0.327 v 0.327 h 0.327 v 0.654 h 0.327 v 0.654 h 0.327 v 0.327 h 0.327 v 0.654 h 0.327 v 0.327 h 0.327 v 0.98 h 0.327 v 0.327 h 0.327 v 0.98 h 0.327 v 0.327 h 0.327 v 0.654 h 0.327 v 1.307 h 0.327 v 0.654 h 0.327 v 1.307 h 0.327 v 1.307 h 0.327 v 0.327 h 0.327 v 0.327 h 0.654 v 0.327 h 0.654 v -0.327 h 0.98 v -0.327 h 0.654 v -0.327 h 0.654 v -0.327 h 0.327 v -0.654 h 0.327 v -0.327 h 0.654 v -0.327 h 0.327 v -0.327 h 0.327 v -0.327 h 0.327 v -0.327 h 0.327 v -0.327 h 0.327 v -0.654 h 0.654 v -0.327 h 0.327 v -0.327 h 0.327 v -0.327 h 0.654 V 98.218 H 89.7 v -0.654 h 0.327 v -0.327 h 0.327 V 96.91 h 0.327 v -0.327 h 0.654 v -0.327 h 0.327 v -0.327 h 0.654 v -0.654 h 0.327 v -0.327 h 0.654 v -0.654 h 1.961 v 0.327 h 0.327 v 0.327 h 0.327 v 0.327 h 0.327 v 0.327 h 0.654 v 0.654 h 0.654 v 0.327 h 0.327 v 0.327 h 0.327 v 0.327 h 0.654 v 0.327 h 0.327 v 0.327 h 0.327 v 0.327 h 0.327 v 0.327 h 0.327 v 0.654 h 0.654 v 0.327 h 0.327 v 0.327 h 0.327 v 0.327 h 0.327 v 0.654 h 0.327 v 0.654 h 0.654 v 0.327 h 0.654 v 0.327 h 0.327 v 0.327 h 0.327 v 0.654 h 0.654 v 0.327 h 0.327 v 0.327 h 1.634 v -0.327 h 0.327 v 0.327 h 0.327 v 0.327 h 0.327 v 0.327 h 0.327 v 0.327 h 0.327 v 0.327 h 0.654 v 0.327 h 0.98 v -0.327 h 0.327 v -0.327 h 0.327 v -0.327 h 0.327 v -0.327 h 0.654 v -0.327 h 0.327 v -0.327 h 0.327 v -0.98 h 0.327 v -0.327 h -0.327 v -0.654 h -0.327 v -0.654 h -0.327 v -0.327 h -0.327 v -0.98 h -0.327 v -0.654 h -0.327 v -0.327 h -0.327 V 98.22 h -0.327 v -0.654 h -0.327 v -0.98 h -0.327 v -1.634 h -0.327 v -0.327 h -0.327 v -0.98 h -0.327 v -0.327 h 0.327 v -0.327 h -0.327 v -0.327 h -0.327 v -0.98 h -0.327 v -0.327 h -0.327 V 91.03 h -0.327 v -0.654 h -0.327 v -1.307 h -0.327 v -0.327 h -0.327 v -0.327 h -0.327 v -0.327 h 0.327 v -0.327 h -0.327 v -0.654 h -0.327 V 86.78 h 0.327 v -0.327 h -0.327 v -0.98 h -0.327 v -0.327 h -0.327 v -0.654 h -0.327 v -0.654 h -0.327 v -0.327 h 0.327 v -0.327 h -0.327 V 82.53 h -0.327 v -0.654 h -0.327 v -1.307 h -0.327 v -0.654 h -0.327 v -1.634 h 0.327 v -0.327 h 0.654 v -0.327 h 0.327 V 77.3 h 0.327 v -0.327 h 0.327 v -0.327 h 0.654 v -0.327 h 0.327 v -0.327 h 0.327 v -0.327 h 0.327 v -0.327 h 0.327 v -0.327 h 0.654 v -0.327 h 0.654 v -0.327 h 0.327 V 74.03 h 0.98 v -0.327 h 0.327 v -0.327 h 0.654 v -0.327 h 1.307 v -0.327 h 0.327 v -0.327 h 0.654 v -0.327 h 0.327 v 0.327 h 0.654 v -0.327 h 0.654 v -2.614 h -0.327 V 68.8 Z m -33.007,34.64 h -0.327 v -0.327 h 0.327 z m 5.229,-2.614 h -0.327 v -0.327 h 0.327 z m 16.994,-27.778 h -0.654 v 0.654 h -0.654 v 0.327 h -0.327 v 0.327 h -0.654 v 0.327 h -0.654 v 0.327 h -1.961 v 0.327 h -0.327 v 0.98 h -0.327 v 1.634 H 97.22 v 0.327 h 0.327 v 1.307 h 0.327 v 0.654 h 0.327 v 1.307 h 0.327 v 0.654 h 0.327 v 0.98 h 0.327 v 0.654 h 0.327 v 1.307 h 0.327 v 0.98 h 0.327 v 0.327 h 0.327 v 1.307 h 0.327 V 88.4 h 0.327 v 0.654 h 0.327 v 1.307 h 0.327 v 0.654 h 0.327 v 0.327 h 0.327 v 0.654 h 0.327 v 1.634 h -0.327 v 0.327 h -0.98 V 93.63 h -0.654 v -0.654 h -0.654 V 92.322 H 99.51 V 91.668 H 99.183 V 91.341 H 98.856 V 91.014 H 98.529 V 90.687 H 98.202 V 90.033 H 97.548 V 89.706 H 97.221 V 89.379 H 96.567 V 89.052 H 96.24 v -0.327 h -0.327 v -0.327 h -0.327 v -0.327 h -0.327 v -0.327 h -2.288 v 0.327 h -0.327 v 0.327 h -0.327 v 0.327 H 91.99 v 0.98 h -0.327 v 0.654 h -0.327 v 0.327 h -0.327 v 0.654 h -0.327 v 0.327 h -0.327 v 0.327 h -0.327 v 0.654 h -0.327 v 0.327 h -0.327 v 0.327 h -0.327 v 0.327 H 88.72 v 0.327 h -0.654 v 0.654 h -0.327 v 0.327 h -0.654 v 0.654 h -0.654 v 0.654 h -0.654 v 0.654 h -0.654 v 0.654 h -0.654 v 0.327 h -0.327 v 0.327 h -0.327 v 0.327 H 83.161 V 98.207 H 82.834 V 97.88 H 82.507 V 97.226 H 82.18 v -0.654 h -0.327 v -0.98 h -0.327 v -0.327 h -0.327 v -0.654 h -0.327 v -0.654 h -0.327 v -0.98 H 80.218 V 92.65 h -0.327 v -0.654 h -0.327 v -0.654 h -0.327 v -0.98 H 78.91 v -0.327 h -0.327 v -0.654 h -0.327 v -0.98 h -0.327 v -1.307 h -0.327 v -0.98 h -0.327 v -0.98 H 76.948 V 84.807 H 76.621 V 84.48 h -0.98 v -0.327 h -0.98 v 0.327 h -0.654 v 0.327 h -0.654 v 0.327 h -0.327 v 0.327 h -0.327 v 0.327 h -0.327 v 0.654 h -0.327 v 0.98 h -0.327 v 0.327 h -0.327 v 0.327 h -0.327 v 0.327 H 70.737 V 88.73 H 70.41 v 0.327 h -0.327 v 0.327 h -0.327 v 0.654 h -0.327 v 0.327 h -0.327 v 0.327 h -0.327 v 0.327 h -0.327 v 0.327 h -0.327 v 0.327 h -0.327 v 0.654 H 67.14 v 0.654 h -0.327 v 0.327 h -0.327 v 0.327 h -0.327 v 0.654 h -0.327 v 0.327 h -0.327 v 0.327 H 65.178 V 95.27 H 64.851 V 94.943 H 64.524 V 94.289 H 64.197 V 92.982 H 63.87 V 92.328 H 63.543 V 92.001 H 63.87 V 91.674 H 63.543 V 90.367 H 63.216 V 90.04 h -0.327 v -1.307 h -0.327 v -1.307 h -0.327 v -0.98 h -0.327 v -0.654 h -0.327 v -0.654 h -0.327 v -0.327 h -0.327 v -0.98 H 60.273 V 83.504 H 59.946 V 83.177 H 57.985 V 82.85 h -0.327 v 0.327 H 57.331 V 82.85 h -0.654 v 0.327 h -2.288 v 0.327 h -1.961 v 0.327 h -0.327 v -0.327 h -0.327 v 0.327 h -1.961 v 0.327 h -0.327 v -0.327 h -0.654 v 0.327 h -0.327 v -0.327 h -0.327 v 0.327 h -0.327 v 0.327 h -0.327 v -0.327 h -0.327 v 0.327 H 45.89 v 0.327 h -0.654 v 0.327 h -0.327 v -0.327 h -0.327 v 0.327 h -1.961 v 0.327 H 41.967 V 85.139 H 41.64 v -0.327 h 0.327 v -0.327 h 0.654 v -0.327 h 0.98 v -0.327 h 0.327 v -0.327 h 0.327 v -0.327 h 0.327 V 82.85 h 0.327 v -0.327 h 0.327 v -0.327 h 0.654 v -0.327 h 0.327 v -0.327 h 0.327 v -0.327 h 0.327 v -0.327 h 0.98 v -0.327 h 0.654 v -0.327 h 0.327 v -0.327 h 0.654 V 79.58 h 0.327 v -0.327 h 0.654 v -0.327 h 0.327 v -0.327 h 0.327 v -0.327 h 0.98 v -0.327 h 0.98 v -0.327 h 0.327 v -0.327 h 0.327 v -0.327 h 0.327 v 0.327 h 0.327 v -0.654 h 0.654 V 76.31 h 0.327 v -0.327 h 0.327 v -0.327 h 0.98 v -0.327 h 0.327 v -0.327 h 0.654 v -0.327 h 0.654 v -0.327 h 0.327 v -0.327 h 0.654 v -0.327 h 0.327 v -0.327 h 0.327 v -0.654 h 0.327 v -0.98 h -0.327 v -0.98 h -0.654 v -0.327 h -0.327 v -0.327 h -0.98 v -0.327 h -2.614 v -0.327 h -0.654 v -0.327 h -0.98 v -0.327 h -0.327 v -0.327 h -1.307 v -0.327 h -0.98 V 67.81 h -0.327 v -0.327 h -0.98 v -0.654 h 0.98 v -0.327 h 0.654 v -0.327 h 0.327 v 0.327 h 0.654 v -0.327 h 0.98 v 0.327 h 0.98 v 0.327 h 1.961 v -0.327 h 0.98 v -0.654 h 0.327 v -0.327 h 0.327 v -0.327 h 0.327 V 64.54 h 0.327 v -1.307 h -0.327 v -0.98 H 57.66 V 61.599 H 57.333 V 61.272 H 57.006 V 60.945 H 56.352 V 60.291 H 56.025 V 59.964 H 55.698 V 59.637 H 55.371 V 59.31 H 55.044 V 58.656 H 54.717 V 58.329 H 54.39 v -0.327 h -0.327 v -0.654 h 0.327 v 0.327 h 0.654 v 0.327 h 0.327 v 0.327 h 0.327 v 0.327 h 0.327 v 0.327 h 1.307 v 0.327 h 0.98 v 0.327 h 0.327 v 0.327 h 0.327 v 0.327 h 1.307 v 0.327 h 0.654 v 0.327 h 0.98 v 0.327 h 0.327 v 0.327 h 1.307 v 0.654 h 0.98 v 0.327 h 0.654 v 0.327 h 1.307 v 0.327 h 1.307 v 0.327 h 0.327 v -0.327 h 0.654 v 0.327 h 0.327 v -0.327 h 0.327 v 0.327 h 0.327 v -0.327 h 0.654 v -0.327 h 0.654 V 62.58 h 0.327 V 61.6 h 0.327 v -0.327 h 0.327 v -0.327 h 0.327 v -0.327 h 0.327 v -0.654 h 0.327 v -0.654 h 0.327 v -0.327 h 0.327 v -0.98 h 0.327 v -0.98 h 0.327 v -0.327 h 0.327 v -0.654 h 0.327 v -0.327 h 0.327 v -0.327 h -0.327 v -0.327 h 0.327 v -0.654 h 0.327 v -0.327 h 0.327 v -0.654 h 0.327 V 53.1 h 0.654 v 0.327 h 0.327 v 0.327 h 0.327 v 0.654 h 0.327 v 0.98 h 0.327 v 0.98 h 0.327 v 1.307 h 0.327 v 0.654 h 0.327 v 0.654 h 0.327 v 0.98 h 0.327 v 0.327 h 0.327 v 0.654 h 0.327 v 0.98 h 0.327 v 0.654 h 0.327 v 0.98 h 0.327 v 0.654 h 0.327 v 0.327 h -0.327 v 0.327 h 0.327 v 0.98 h 0.327 v 0.327 h 0.327 v 0.654 h 0.654 v 0.327 h 0.327 v 0.327 h 0.327 v -0.327 h 0.327 v 0.327 h 0.98 v -0.327 h 0.327 v 0.327 h 0.327 V 67.154 H 86.1 v -0.327 h 0.654 V 66.5 h 0.654 v -0.327 h 0.654 v -0.327 h 0.327 v -0.327 h 0.654 v -0.327 h 0.327 v -0.327 h 0.654 v -0.327 h 0.327 v -0.327 h 0.327 v -0.327 h 0.654 v -0.327 h 0.327 v 0.654 h -0.327 v 0.654 h -0.327 v 1.307 h -0.327 v 1.307 h -0.327 v 1.307 h -0.327 v 0.654 h -0.327 v 0.654 H 89.37 v 0.98 h -0.327 v 0.654 h 0.327 v 0.327 h 0.327 v 0.654 h 1.307 v 0.327 h 0.98 v -0.327 h 0.327 v 0.327 h 0.654 v -0.327 h 0.327 v 0.327 h 0.654 v -0.327 h 3.268 v 0.327 h 0.327 v -0.327 h 0.98 v -0.327 h 2.288 v -0.327 h 0.654 v 0.327 h 0.654 v 0.327 h 0.327 v -0.327 h 0.327 v 0.327 h 0.327 v 0.327 z"
         id="path23" /><path
         id="rect24"
         d="m 47.222,57.68 h 0.327 v 0.327 h -0.327 z" /><path
         id="rect25"
         d="m 100.817,73.693001 h 0.327 v 0.327 h -0.327 z" /></g><g
       aria-label="CAIRN"
       transform="scale(0.87838645,1.1384511)"
       id="text1"
       style="font-size:59.7737px;font-family:'HV SMEGS';-inkscape-font-specification:'HV SMEGS';fill:#ffd42a;stroke-width:0.373585"><path
         d="m 86.698423,123.30001 -0.05977,-0.11955 c -4.961217,-3.46687 -10.221303,2.2714 -13.628404,5.73828 -1.494342,2.21162 -3.466875,4.06461 -5.379633,5.97737 -2.390948,2.51049 -6.45556,2.15185 -9.504018,1.25524 -4.84167,-0.71728 -7.232618,-5.97737 -3.466875,-9.68334 3.825517,-3.52664 9.802887,-3.52664 14.04682,-6.27623 2.092079,-1.31503 4.184159,-2.92892 6.156691,-4.42326 1.315021,-0.65751 2.689816,-1.1357 4.124385,-0.95638 1.374795,0.41842 2.570269,1.49435 3.945064,1.49435 0.597737,0 1.255248,0 1.852985,0 4.423254,-0.0598 7.890129,-5.49919 4.901444,-9.20515 -1.135701,-1.19548 -2.749591,-1.97254 -4.124386,-2.45073 -2.331174,-0.17932 -6.336012,-0.11954 -9.025829,-0.0598 -2.74959,-0.17932 -4.542801,1.61389 -7.11307,2.09208 -9.623566,3.94506 -17.872336,11.29723 -23.610612,20.02419 -1.016153,1.97253 -1.972532,4.36348 -1.793211,6.63488 0.896606,3.10823 4.004838,5.49918 6.216465,7.53149 2.570269,2.74959 3.765743,5.02099 7.949902,4.06461 6.575107,-1.19548 12.91112,-5.73828 19.067811,-9.02583 1.673664,-0.89661 3.646196,-1.25525 5.020991,-2.57027 1.494342,-1.3748 3.407101,-3.28755 4.303706,-5.08076 0.657511,-1.43457 0.657511,-3.46688 0.119548,-4.96122 z"
         id="path60" /><path
         d="m 112.28155,94.24999 -0.11955,0.05977 c -1.85298,1.374795 -2.86913,3.885291 -4.60257,5.499181 -5.61873,6.156689 -11.894969,11.357009 -14.405464,18.828719 -0.836832,4.06461 -3.347327,7.17284 -5.678502,10.40062 -2.928911,4.84167 -4.602575,10.22131 -6.037144,15.60094 -0.179321,1.49434 0.95638,4.12438 2.689817,2.63004 1.374795,-1.19547 2.74959,-2.86914 3.22778,-4.66235 0.956379,-3.64619 2.092079,-7.05329 4.004838,-10.46039 1.075926,-1.85299 2.390948,-3.58643 3.466874,-5.43941 1.255248,-1.79321 1.61389,-5.02099 4.124386,-5.31986 1.075925,0 1.793215,0.89661 2.630045,1.49434 1.19547,1.07593 2.86914,0.65751 4.06461,1.73344 2.2714,1.85298 1.61389,5.31986 0.83683,7.71081 -0.17932,2.2714 -0.41841,4.3037 -0.95638,6.27624 0.0598,1.91275 0.0598,4.12438 1.49434,5.55895 1.01616,0.95638 2.57027,0.17932 3.10824,-0.83683 1.07592,-3.4071 1.73343,-6.87398 2.63004,-10.40063 1.25525,-3.88529 -0.95638,-7.53148 -0.29887,-11.41677 0.65751,-6.69466 2.33118,-13.50886 3.10823,-20.02419 0.17932,-1.3748 -0.29886,-2.450727 -0.47819,-3.765749 -0.0598,-0.65751 0.0598,-1.374795 -0.17932,-2.032306 -0.23909,-1.016152 -1.73343,-1.673663 -2.63004,-1.434568 z m -3.70597,13.68818 0.0598,0.0598 c -0.11954,1.07593 0.83684,2.21163 0.47819,3.28755 -0.17932,0.35865 -0.53796,0.53797 -0.53796,1.07593 -0.0598,1.19547 0.2391,1.97253 -0.23909,2.86914 -0.71729,1.19547 -2.57027,2.63004 -3.40711,0.77706 -0.53796,-1.25525 -0.77705,-4.00484 -0.47818,-5.20032 0.11954,-0.17932 0.35864,-0.35864 0.41841,-0.59773 0.0598,-0.2391 0.11955,-0.53797 0.0598,-0.77706 0.0598,-0.59774 1.49435,-1.55412 1.85299,-1.97253 0.23909,-0.11955 1.67366,0.35864 1.79321,0.47819 z"
         id="path62" /><path
         d="m 126.74678,99.330754 -0.11955,0.119548 c -3.16801,2.331178 -2.39095,6.873978 -2.80937,10.340848 -0.41841,5.08077 -3.22778,10.63972 -4.66234,15.72049 -1.01616,3.58642 -1.67367,7.29239 -2.68982,10.93858 -0.2391,1.25525 -1.01615,2.2714 -1.19548,3.4071 0.0598,1.61389 -0.11954,3.46688 0.71729,4.96122 0.35864,0.71728 0.71728,1.55412 1.07593,2.09208 1.01615,1.43457 3.10823,1.25525 4.5428,0.53796 1.79321,-1.37479 2.39095,-3.58642 3.04846,-5.6785 3.04845,-8.12922 1.07592,-17.63324 3.22778,-25.88201 0.65751,-3.6462 6.51533,-17.932111 -1.1357,-16.557316 z"
         id="path64" /><path
         d="m 163.68696,96.640938 h -0.17932 c -1.55412,0.358642 -3.46688,1.016153 -5.08077,1.374795 -5.4394,1.494342 -8.06945,4.363477 -12.85134,7.232617 -1.61389,1.1357 -3.88529,0.47819 -5.55896,0.95638 -2.51049,0.71728 -3.4071,3.46687 -3.04846,5.85782 1.01616,5.43941 -2.98868,10.57995 -5.20031,15.30207 -1.25525,2.68982 -1.97253,5.79805 -3.22778,8.54764 -0.53796,1.07593 -1.55411,2.39095 -1.85298,3.4071 -0.35865,1.25525 -0.17932,3.34733 1.37479,3.52665 3.46688,-0.0598 4.06461,-4.60258 5.55896,-7.0533 0.95638,-1.91276 2.51049,-3.4071 3.58642,-5.20031 0.41841,-0.53796 1.01615,-0.83683 1.67366,-0.89661 1.01616,-0.0598 1.91276,0.65751 2.80937,1.01616 1.01615,0.47819 2.21162,0.65751 3.04845,1.25524 0.89661,0.65752 2.03231,1.79322 2.80937,2.80937 1.43457,2.09208 1.91276,6.21646 3.04846,8.96605 0.59773,1.67367 1.67366,3.22778 2.51049,4.7819 0.65751,1.25525 0.95638,2.86914 2.09208,3.70597 2.98869,2.15185 4.48303,-3.70597 5.49918,-5.6785 0.53797,-2.98869 1.67367,-5.97737 0.77706,-8.96606 -0.41841,-2.33117 -0.77706,-4.84167 -3.76574,-4.72212 -1.1357,0 -2.21163,0.17932 -3.16801,-0.17932 -1.31502,-0.59774 -2.63004,-1.19547 -3.4071,-2.45072 -0.8966,-1.43457 -1.79321,-2.86914 -1.43457,-4.66235 0.2391,-1.3748 1.55412,-2.57027 2.57027,-3.4071 0.77706,-0.59774 1.67366,-0.77706 2.39095,-1.31502 4.00484,-3.28756 11.95474,-11.89497 14.16637,-16.19868 0.41841,-1.61389 1.67366,-3.34732 1.1357,-5.020987 -0.65751,-2.630043 -3.88529,-3.347328 -6.27624,-2.988685 z m -4.7819,10.101752 c 3.52665,1.25525 -1.67366,5.9176 -3.22778,6.99353 -4.18416,2.39094 -7.77058,6.63488 -12.31338,8.66718 -1.73344,0.65751 -3.52665,-0.71728 -3.28755,-2.68981 0,-1.79321 -0.0598,-4.54281 0.11954,-5.61873 0.59774,-1.25525 1.19548,-3.10823 2.5105,-3.76574 1.25525,-0.71729 2.2714,-1.3748 3.76574,-1.13571 1.31502,0.0598 2.45072,-0.77705 3.76575,-0.41841 3.04845,1.31502 5.97737,-0.59774 8.54763,-1.97253 z"
         id="path66" /><path
         d="m 182.63525,144.28058 0.11955,-0.11955 c 0.83683,-0.95638 1.67366,-2.57027 1.73344,-3.94506 0.23909,-5.55896 2.0323,-7.0533 5.79805,-10.40063 2.80936,-2.68981 2.21162,-7.0533 3.34732,-10.4604 2.86914,-6.93375 7.11307,-12.91112 12.25361,-18.1712 1.3748,-1.494344 2.57027,-3.407102 2.68982,-5.439408 -0.2391,-2.630043 -1.61389,-5.857823 -4.72212,-5.379633 -1.1357,0.119547 -2.15186,0.836832 -2.98869,1.673664 -6.27624,4.602575 -7.23262,11.357007 -9.38447,18.051657 -0.83683,2.09208 -4.60257,19.60577 -8.12922,13.56863 -2.63005,-5.79805 -0.95638,-12.7318 -2.45072,-18.70917 -0.53797,-2.2714 -0.0598,-6.754426 -3.40711,-6.395784 -5.20031,1.673664 -2.45072,8.368314 -3.04845,12.373154 -0.17933,1.07593 -0.71729,2.09208 -1.07593,3.10823 -1.19548,3.6462 -1.85299,7.2924 -2.39095,11.05814 -0.41842,2.2714 -1.85298,4.24393 -3.04846,6.27624 -3.04846,3.94506 -3.76574,8.48786 -4.72212,13.20999 -0.29887,1.25524 -1.19547,2.21162 -1.31502,3.34732 -0.17932,1.25525 0.65751,2.39095 2.0323,2.09208 2.15186,-0.35864 2.68982,-2.57027 3.34733,-4.3037 1.85299,-4.60258 2.03231,-8.96606 4.48303,-13.26977 0.59774,-1.19547 1.19547,-2.45072 1.61389,-3.70597 0.53796,-1.55411 0.41841,-3.52664 2.15185,-4.3037 4.12439,-0.35864 3.46688,6.75443 2.21163,9.20515 -1.1357,2.45072 -0.71729,5.26008 -0.29887,7.83035 0.17932,1.01616 0.77706,1.97254 1.49434,2.74959 0.71729,0.95638 2.80937,0.35865 3.70597,0.0598 z"
         id="path68" /></g></g></svg>
